<?xml version="1.0" standalone="no"?>
<!DOCTYPE svg PUBLIC "-//W3C//DTD SVG 20010904//EN"
 "http://www.w3.org/TR/2001/REC-SVG-20010904/DTD/svg10.dtd">
<svg version="1.0" xmlns="http://www.w3.org/2000/svg"
 width="500.000000pt" height="500.000000pt" viewBox="0 0 500.000000 500.000000"
 preserveAspectRatio="xMidYMid meet">

<g transform="translate(0.000000,500.000000) scale(0.100000,-0.100000)"
fill="#ffffff" stroke="none">
<path d="M2610 4300 c-8 -5 -89 -43 -180 -84 -91 -41 -203 -92 -250 -114 -92
-43 -150 -69 -247 -113 -35 -16 -63 -32 -63 -36 0 -9 15 -17 140 -73 47 -21
206 -97 353 -169 147 -72 275 -131 284 -131 8 0 90 37 182 81 211 103 329 159
411 195 36 16 85 38 110 50 32 16 47 18 52 10 4 -6 8 -53 8 -103 0 -86 -1 -93
-20 -93 -19 0 -20 -7 -20 -110 l0 -111 56 3 55 3 3 108 c2 97 0 107 -16 107
-16 0 -18 11 -18 118 l0 118 -67 29 c-38 16 -117 52 -178 81 -60 28 -135 63
-165 77 -30 14 -124 57 -208 96 -149 69 -190 80 -222 61z m90 -260 l29 -31
133 -2 c129 -2 148 -6 148 -36 0 -11 -26 -13 -147 -9 -136 5 -150 4 -174 -15
-33 -24 -72 -17 -94 17 -21 32 -10 72 24 91 38 21 50 18 81 -15z"/>
<path d="M2637 4013 c-13 -12 -7 -23 13 -23 11 0 20 7 20 15 0 15 -21 21 -33
8z"/>
<path d="M1978 3787 c-13 -12 -31 -21 -40 -19 -24 5 -132 -104 -124 -124 3 -9
1 -12 -4 -9 -6 4 -21 -17 -34 -47 -29 -62 -44 -148 -27 -148 6 0 11 -3 11 -7
0 -5 -25 -6 -56 -5 -53 4 -144 -20 -144 -37 0 -4 -9 -7 -21 -8 -52 -4 -143
-106 -180 -203 -28 -74 -29 -220 -2 -300 39 -115 138 -229 247 -284 49 -25 59
-26 206 -26 117 0 166 -4 200 -16 25 -9 88 -19 140 -21 87 -4 99 -3 142 20 46
25 47 26 185 16 144 -11 188 -7 236 17 39 21 106 92 124 134 15 33 16 34 24
13 17 -47 170 -43 275 6 114 53 192 148 234 283 12 40 12 160 -1 152 -4 -2
-11 16 -15 42 -7 48 -24 44 -24 -7 0 -21 -38 -83 -41 -68 0 2 -3 30 -5 63 -2
32 -11 70 -20 85 -19 32 -81 74 -96 65 -6 -4 -8 -3 -5 2 3 6 -3 15 -14 22 -10
7 -19 8 -19 3 0 -5 5 -11 12 -13 7 -3 5 -7 -6 -11 -9 -4 -15 -3 -11 2 3 5 1
12 -5 16 -6 4 -10 -5 -10 -20 0 -17 4 -24 12 -19 7 4 8 3 4 -4 -13 -21 -36 0
-36 33 0 29 3 32 22 27 14 -3 19 -1 14 6 -5 8 -2 10 8 6 9 -3 23 1 32 10 14
15 13 19 -21 51 l-36 36 -44 -32 c-25 -18 -45 -35 -45 -39 0 -4 -9 -17 -20
-30 -11 -13 -20 -32 -20 -43 0 -17 -5 -19 -42 -14 -27 4 -37 2 -27 -4 11 -7
11 -9 -4 -9 -10 0 -20 -6 -23 -14 -3 -8 -13 -12 -24 -9 -12 3 -31 -5 -50 -20
-19 -16 -39 -24 -56 -22 -15 1 -35 -4 -45 -13 -26 -22 -47 -23 -54 -2 -3 10
-15 20 -26 23 -12 3 -18 10 -14 17 3 6 3 10 -2 9 -22 -4 -25 2 -7 16 18 13 16
14 -22 15 -41 0 -152 29 -212 56 -18 8 -38 11 -44 8 -6 -4 -8 -3 -5 3 3 5 -9
17 -29 26 -61 30 -123 95 -130 138 -4 22 -10 39 -15 39 -5 0 -13 15 -18 33 -5
17 -10 24 -10 15 -1 -27 -21 -21 -21 6 0 13 7 26 15 30 17 6 21 36 4 36 -5 0
-7 5 -4 11 4 6 13 8 20 5 31 -11 22 9 -13 30 -50 31 -64 31 -52 0 8 -23 5 -27
-38 -47 -54 -26 -152 -118 -152 -143 0 -9 -4 -16 -10 -16 -14 0 -13 56 2 83
15 28 52 62 106 94 43 25 59 43 21 23 -23 -13 -35 -8 -24 9 3 6 11 9 16 5 5
-3 8 0 7 8 -2 8 7 13 24 13 14 -1 24 3 22 7 -10 15 -43 8 -66 -15z m81 -93 c6
4 11 3 11 -2 0 -6 -16 -10 -36 -10 -31 0 -33 1 -17 13 12 9 20 10 24 3 4 -6
12 -7 18 -4z m-84 -34 c-3 -5 -1 -10 6 -10 7 0 10 -3 6 -6 -9 -9 -28 6 -22 17
4 5 8 9 11 9 3 0 2 -4 -1 -10z m42 4 c-3 -3 -12 -4 -19 -1 -8 3 -5 6 6 6 11 1
17 -2 13 -5z m30 -15 c-9 -6 -15 -14 -12 -20 4 -5 2 -9 -3 -9 -6 0 -12 6 -15
14 -6 15 6 24 33 25 11 0 11 -2 -3 -10z m134 -156 c13 -16 12 -17 -3 -4 -10 7
-18 15 -18 17 0 8 8 3 21 -13z m-4 -55 c-3 -8 -6 -5 -6 6 -1 11 2 17 5 13 3
-3 4 -12 1 -19z m43 12 c0 -5 -4 -10 -10 -10 -5 0 -10 5 -10 10 0 6 5 10 10
10 6 0 10 -4 10 -10z m-408 -30 c16 -25 88 -29 88 -5 0 8 5 15 10 15 6 0 10
-7 10 -15 0 -12 17 -15 95 -15 88 0 95 -1 95 -20 0 -11 7 -20 15 -20 8 0 15
-4 15 -10 0 -5 -9 -10 -19 -10 -11 0 -26 -7 -35 -15 -15 -15 -46 -11 -46 7 0
5 -9 6 -20 3 -11 -4 -20 -2 -20 4 0 6 -18 11 -40 11 -29 0 -40 -4 -40 -15 0
-8 -4 -15 -10 -15 -5 0 -10 14 -10 30 0 17 -4 30 -10 30 -5 0 -10 -4 -10 -10
0 -5 -9 -10 -20 -10 -11 0 -20 -4 -20 -10 0 -5 -9 -10 -20 -10 -11 0 -20 -4
-20 -10 0 -5 -7 -10 -15 -10 -8 0 -15 9 -15 19 0 10 -7 22 -16 25 -8 3 -12 2
-9 -4 3 -6 2 -10 -3 -10 -5 0 -12 11 -14 24 -4 18 0 26 14 29 10 3 18 1 18 -5
0 -5 5 -6 10 -3 6 3 10 15 10 26 0 25 16 24 32 -1z m1243 -2 c-9 -6 -19 -7
-22 -4 -4 3 -1 6 6 6 7 0 9 4 6 10 -4 6 1 7 11 3 15 -6 15 -7 -1 -15z m-1195
2 c0 -5 -4 -10 -10 -10 -5 0 -10 5 -10 10 0 6 5 10 10 10 6 0 10 -4 10 -10z
m257 4 c-3 -3 -12 -4 -19 -1 -8 3 -5 6 6 6 11 1 17 -2 13 -5z m161 -14 c2 -5
7 -8 12 -5 4 3 10 -2 14 -10 4 -11 -2 -15 -20 -15 -20 0 -25 4 -20 16 3 8 2
12 -4 9 -6 -3 -10 -2 -10 4 0 5 -10 12 -22 14 -13 2 -7 3 12 1 19 -2 36 -8 38
-14z m799 -30 c2 -12 -2 -19 -10 -17 -19 3 -27 20 -15 34 13 16 21 10 25 -17z
m-713 -30 c4 0 4 5 0 11 -4 7 -2 10 5 8 23 -8 11 -24 -17 -24 -20 -1 -28 4
-28 17 0 15 2 16 16 3 9 -8 20 -15 24 -15z m-693 3 c12 -14 12 -16 0 -8 -10 6
-13 4 -9 -6 4 -10 -1 -15 -12 -15 -10 0 -16 4 -14 8 9 15 -12 8 -32 -10 -10
-10 -28 -21 -38 -25 -10 -4 -16 -10 -12 -14 3 -3 -8 -15 -25 -25 -16 -10 -27
-22 -24 -27 3 -6 -3 -16 -13 -23 -11 -7 -19 -16 -18 -20 0 -4 -7 -17 -17 -29
-10 -11 -19 -36 -20 -54 -1 -18 -5 -31 -9 -29 -4 2 -9 -6 -12 -18 -3 -13 -3 7
-1 44 2 37 12 85 22 106 19 42 97 132 114 132 6 0 7 5 3 12 -4 6 -3 8 3 5 5
-3 23 -2 39 3 44 13 60 12 75 -7z m748 -7 c9 -11 9 -16 0 -22 -8 -5 -9 -3 -4
6 6 10 4 12 -8 7 -11 -4 -14 -2 -10 9 6 17 8 17 22 0z m-119 -10 c0 -3 -4 -8
-10 -11 -5 -3 -10 -1 -10 4 0 6 5 11 10 11 6 0 10 -2 10 -4z m657 -12 c-3 -3
-12 -4 -19 -1 -8 3 -5 6 6 6 11 1 17 -2 13 -5z m-1080 -10 c-3 -3 -12 -4 -19
-1 -8 3 -5 6 6 6 11 1 17 -2 13 -5z m406 -21 c-7 -2 -19 -2 -25 0 -7 3 -2 5
12 5 14 0 19 -2 13 -5z m-693 -7 c0 -3 -4 -8 -10 -11 -5 -3 -10 -1 -10 4 0 6
5 11 10 11 6 0 10 -2 10 -4z m1450 -14 c0 -4 -5 -13 -12 -20 -9 -9 -6 -12 15
-12 16 0 25 5 23 13 -1 6 -1 9 1 4 3 -4 22 -10 44 -13 43 -7 69 -40 69 -89 0
-14 5 -25 10 -25 6 0 10 -25 10 -56 0 -34 4 -53 10 -49 6 3 10 -3 10 -15 0
-12 -4 -18 -10 -15 -5 3 -10 1 -10 -4 0 -16 80 -14 81 2 0 8 2 8 6 -2 5 -11 7
-11 15 0 15 22 -2 -32 -18 -58 -16 -26 -55 -47 -104 -58 -31 -7 -33 -6 -21 9
12 14 11 16 -7 16 -12 0 -24 5 -27 10 -4 7 2 9 18 5 34 -9 44 11 19 38 -11 12
-27 47 -34 77 -13 52 -16 55 -64 75 -76 31 -77 32 -69 82 4 25 9 53 12 62 4
14 3 14 -6 1 -12 -18 -26 -7 -18 15 6 15 57 22 57 7z m-820 -12 c0 -5 -5 -10
-11 -10 -5 0 -7 5 -4 10 3 6 8 10 11 10 2 0 4 -4 4 -10z m1044 -12 c-3 -4 -9
-8 -15 -8 -5 0 -9 4 -9 8 0 5 7 9 15 9 8 0 12 -4 9 -9z m-614 -14 c0 -8 -5
-12 -10 -9 -6 4 -8 11 -5 16 9 14 15 11 15 -7z m-542 -14 l42 -19 0 -250 0
-250 -56 26 c-54 25 -63 25 -168 19 -61 -3 -126 -9 -145 -13 l-34 -6 7 69 c3
38 9 144 13 235 l6 165 66 21 c88 29 209 30 269 3z m388 -2 l81 -23 7 -119 c3
-65 6 -171 6 -234 l0 -115 -42 7 c-177 29 -240 26 -318 -14 l-40 -20 0 238 c0
216 2 240 18 255 56 51 161 60 288 25z m234 -10 c0 -4 -6 -8 -14 -8 -8 0 -17
4 -20 8 -2 4 4 8 15 8 10 0 19 -4 19 -8z m-1216 -13 c-4 -8 -11 -15 -16 -15
-6 0 -5 6 2 15 7 8 14 15 16 15 2 0 1 -7 -2 -15z m1746 11 c0 -3 -4 -8 -10
-11 -5 -3 -10 -1 -10 4 0 6 5 11 10 11 6 0 10 -2 10 -4z m-1760 -40 c0 -3 -4
-8 -10 -11 -5 -3 -10 -1 -10 4 0 6 5 11 10 11 6 0 10 -2 10 -4z m226 -131 c-3
-49 -11 -146 -16 -214 -6 -68 -7 -128 -2 -133 4 -4 46 -1 92 7 166 29 284 16
321 -37 25 -35 72 -39 91 -7 36 59 157 75 326 43 46 -9 88 -12 92 -7 5 4 5
107 0 228 -4 121 -6 223 -3 228 7 12 21 8 28 -10 4 -10 11 -112 16 -228 4
-115 11 -220 14 -232 11 -34 -16 -39 -88 -17 -47 15 -93 19 -194 19 l-132 0
-34 -37 c-47 -51 -77 -49 -140 11 -26 24 -36 26 -138 29 -75 3 -135 -2 -191
-13 -46 -9 -87 -17 -93 -18 -5 -1 -9 12 -9 28 1 17 6 125 12 241 5 117 13 217
17 223 5 9 11 9 22 -1 13 -10 15 -28 9 -103z m-272 -35 c28 0 46 -18 46 -47 0
-13 5 -23 10 -23 6 0 10 -5 10 -11 0 -5 -5 -7 -10 -4 -10 6 -7 -21 6 -63 2 -7
-1 -10 -6 -7 -6 3 -11 16 -11 28 -1 18 -2 19 -6 4 -3 -10 2 -29 11 -42 21 -31
20 -41 -1 -24 -24 20 -81 149 -80 184 0 17 2 24 4 18 3 -7 15 -13 27 -13z
m1666 -35 c0 -8 -7 -15 -15 -15 -16 0 -20 12 -8 23 11 12 23 8 23 -8z"/>
<path d="M3170 3010 c0 -5 5 -10 11 -10 5 0 7 5 4 10 -3 6 -8 10 -11 10 -2 0
-4 -4 -4 -10z"/>
<path d="M1878 3133 c-27 -8 -48 -19 -48 -24 0 -6 9 -7 23 -3 84 27 152 30
210 10 27 -10 37 -11 34 -2 -11 33 -137 45 -219 19z"/>
<path d="M1940 3084 c-57 -10 -110 -27 -110 -36 0 -6 10 -7 28 -2 35 11 190
12 220 1 13 -5 22 -4 22 2 0 19 -110 43 -160 35z"/>
<path d="M1863 3009 c-18 -5 -33 -15 -33 -21 0 -7 10 -8 33 -2 42 11 175 11
210 0 35 -11 36 7 2 22 -30 14 -166 14 -212 1z"/>
<path d="M1900 2949 c-50 -14 -80 -31 -74 -41 3 -5 11 -4 19 2 25 21 140 24
195 6 29 -10 54 -15 57 -12 11 11 -11 26 -59 41 -58 17 -87 18 -138 4z"/>
<path d="M1851 2858 c-48 -24 -41 -36 11 -20 81 25 123 25 217 -4 37 -11 17
13 -26 31 -52 22 -149 18 -202 -7z"/>
<path d="M2283 3137 c-48 -18 -53 -30 -8 -20 51 10 126 10 188 0 68 -12 59 8
-10 22 -70 14 -128 13 -170 -2z"/>
<path d="M2302 3077 c-29 -7 -53 -16 -52 -22 1 -5 9 -8 18 -6 9 3 70 5 135 4
161 0 155 14 -13 32 -19 2 -59 -2 -88 -8z"/>
<path d="M2335 3021 c-32 -8 -88 -41 -82 -48 3 -2 23 4 46 13 41 16 113 16
199 -2 48 -10 39 12 -10 24 -69 16 -121 21 -153 13z"/>
<path d="M2288 2928 c-27 -11 -48 -24 -48 -29 0 -13 7 -11 43 8 39 20 180 23
216 4 19 -11 23 -11 19 1 -13 39 -156 49 -230 16z"/>
<path d="M2288 2858 c-56 -24 -66 -44 -11 -21 39 16 187 15 227 -2 14 -6 18
-5 14 5 -5 17 -88 40 -143 39 -22 0 -61 -9 -87 -21z"/>
<path d="M2220 3640 c0 -86 1 -88 33 -119 71 -71 252 -131 392 -131 144 0 301
54 391 133 l44 39 0 79 c0 46 -4 79 -10 79 -6 0 -90 -40 -188 -88 -97 -49
-191 -94 -209 -101 -30 -12 -40 -8 -242 92 l-211 105 0 -88z"/>
<path d="M1402 3691 c-6 -18 -20 -31 -36 -35 -31 -8 -35 -36 -6 -36 13 0 28
-12 38 -30 21 -37 29 -37 44 -5 6 14 22 28 35 31 30 8 30 30 -1 38 -14 3 -29
18 -36 36 -16 38 -25 38 -38 1z"/>
<path d="M1620 3700 c0 -13 5 -20 13 -17 6 2 12 10 12 17 0 7 -6 15 -12 18 -8
2 -13 -5 -13 -18z"/>
<path d="M3758 3545 c-6 -14 -19 -25 -30 -25 -10 0 -18 -7 -18 -15 0 -8 9 -15
19 -15 11 0 23 -9 26 -20 8 -25 32 -26 40 -1 3 11 12 22 20 25 19 7 19 26 0
26 -8 0 -17 11 -21 25 -3 14 -10 25 -15 25 -5 0 -15 -11 -21 -25z"/>
<path d="M3206 3412 c-3 -5 14 -25 38 -45 24 -19 52 -54 63 -77 15 -30 22 -36
27 -24 3 8 1 25 -5 36 -8 15 -8 19 0 14 24 -15 9 17 -26 55 -36 38 -86 59 -97
41z"/>
<path d="M2942 3391 c-11 -7 -11 -9 2 -14 10 -4 16 -1 16 8 0 17 -1 17 -18 6z"/>
<path d="M3404 3377 c-3 -8 4 -39 16 -69 19 -52 25 -58 78 -83 31 -14 135 -68
230 -118 124 -66 172 -96 172 -109 0 -10 -4 -18 -9 -18 -5 0 -40 -17 -78 -39
-225 -127 -534 -302 -573 -323 -25 -14 -94 -53 -155 -88 -101 -58 -147 -84
-290 -166 -27 -15 -166 -95 -309 -176 -142 -81 -263 -148 -269 -148 -9 0 -116
55 -237 122 -121 67 -418 233 -445 248 -16 9 -121 65 -232 124 -112 59 -205
112 -208 117 -7 10 48 46 156 103 l75 40 -20 53 c-12 29 -25 53 -30 53 -5 0
-68 -32 -140 -72 -72 -39 -160 -87 -196 -106 -80 -43 -110 -69 -110 -97 0 -31
19 -44 158 -115 68 -34 217 -115 330 -179 244 -138 699 -390 759 -420 25 -13
61 -21 90 -21 51 0 82 15 363 180 264 155 842 485 1025 585 28 16 82 46 120
68 229 130 287 163 355 200 118 63 142 94 103 129 -10 9 -163 88 -340 177
-315 157 -376 180 -389 148z m-1833 -1043 c18 -22 -1 -49 -36 -49 -35 0 -54
27 -36 49 8 9 24 16 36 16 12 0 28 -7 36 -16z"/>
<path d="M2937 3359 c7 -7 15 -10 18 -7 3 3 -2 9 -12 12 -14 6 -15 5 -6 -5z"/>
<path d="M2830 3356 c0 -2 7 -7 16 -10 8 -3 12 -2 9 4 -6 10 -25 14 -25 6z"/>
<path d="M2808 3338 c8 -8 9 -15 1 -25 -15 -17 1 -16 25 2 17 13 18 15 3 15
-9 0 -17 5 -17 10 0 6 -5 10 -12 10 -9 0 -9 -3 0 -12z"/>
<path d="M2710 3330 c0 -6 11 -8 28 -4 39 10 40 14 4 14 -18 0 -32 -5 -32 -10z"/>
<path d="M2870 3329 c0 -5 5 -7 10 -4 6 3 10 8 10 11 0 2 -4 4 -10 4 -5 0 -10
-5 -10 -11z"/>
<path d="M3450 3180 c0 -5 6 -10 13 -10 8 0 7 -4 -3 -10 -21 -13 -3 -13 22 1
16 8 19 8 13 -1 -5 -9 -1 -10 15 -5 17 5 21 4 15 -5 -5 -9 -4 -11 3 -6 17 10
15 14 -18 31 -33 17 -60 20 -60 5z"/>
<path d="M952 2964 l-22 -26 22 -18 c22 -17 23 -17 44 3 21 20 21 22 5 44 -20
28 -21 28 -49 -3z"/>
<path d="M4139 2955 c-12 -12 -256 -155 -264 -155 -2 0 -70 -39 -152 -86 -81
-47 -242 -139 -358 -204 -115 -64 -253 -142 -305 -172 -280 -161 -694 -401
-759 -438 -63 -37 -82 -43 -131 -43 -49 0 -70 7 -161 55 -141 74 -493 268
-664 366 -126 71 -141 77 -147 61 -10 -27 -21 -23 -16 5 4 22 -6 30 -106 84
-61 33 -136 72 -166 87 -30 15 -65 36 -78 48 l-22 20 0 -27 c0 -34 32 -67 101
-102 30 -15 71 -37 91 -50 37 -24 38 -26 38 -84 0 -33 4 -60 10 -60 11 0 13 8
10 68 -1 23 1 42 5 42 3 0 63 -33 133 -73 70 -40 148 -83 175 -97 l47 -25 0
-58 c0 -69 23 -76 28 -9 2 23 6 42 10 41 4 0 66 -33 137 -72 81 -45 134 -81
140 -95 6 -14 15 -20 27 -16 10 3 86 -31 185 -82 l168 -87 0 -38 c0 -51 19
-50 23 1 3 39 4 40 40 40 40 0 151 49 236 102 40 27 51 30 67 20 16 -10 20
-10 24 3 3 8 7 22 10 30 2 8 23 24 47 36 24 12 127 71 229 130 232 134 238
137 250 118 7 -11 9 -9 9 8 0 16 16 32 63 59 93 55 287 164 292 164 3 0 5 -22
5 -49 0 -28 5 -53 10 -56 6 -4 10 18 10 59 l0 65 133 72 c72 40 158 90 190
111 32 21 60 38 63 38 2 0 4 -20 4 -45 0 -25 4 -45 10 -45 8 0 15 27 22 88 2
19 27 37 123 89 130 70 170 101 180 140 7 31 3 37 -16 18z"/>
<path d="M3416 2933 c-6 -14 -5 -15 5 -6 7 7 10 15 7 18 -3 3 -9 -2 -12 -12z"/>
<path d="M3416 2904 c-9 -8 -16 -22 -16 -30 0 -9 -5 -12 -12 -8 -6 4 -8 3 -4
-4 3 -6 2 -13 -4 -17 -19 -11 0 -25 35 -25 19 0 36 -4 39 -8 3 -5 -8 -6 -25
-4 -17 3 -40 -3 -55 -13 -15 -9 -24 -13 -21 -8 3 5 -3 9 -13 9 -18 0 -18 -2 3
-25 12 -14 14 -19 5 -12 -20 15 -25 2 -7 -16 9 -9 21 -6 48 13 19 13 41 24 48
24 7 0 18 9 25 19 7 11 18 17 27 13 13 -5 12 -2 -2 13 -10 10 -16 26 -14 36 3
11 1 22 -4 25 -5 3 -9 0 -9 -7 0 -8 -4 -8 -15 1 -9 7 -14 19 -11 27 7 17 1 17
-18 -3z m18 -30 c9 -24 2 -26 -12 -4 -7 11 -8 20 -3 20 5 0 12 -7 15 -16z m36
-44 c0 -5 -7 -7 -15 -4 -8 4 -15 8 -15 10 0 2 7 4 15 4 8 0 15 -4 15 -10z
m-35 -37 c-11 -3 -26 -10 -32 -15 -9 -7 -13 -7 -13 0 0 13 18 21 45 20 l20 0
-20 -5z"/>
<path d="M3358 2813 c7 -3 16 -2 19 1 4 3 -2 6 -13 5 -11 0 -14 -3 -6 -6z"/>
<path d="M1300 2733 c-25 -15 -48 -31 -51 -36 -3 -5 -10 -8 -15 -7 -23 4 -12
-21 15 -35 17 -8 31 -18 31 -21 0 -2 -14 3 -31 11 -17 9 -37 14 -45 11 -8 -3
-14 -1 -14 4 0 5 -7 7 -16 3 -12 -4 -11 -8 8 -17 13 -7 25 -9 28 -5 7 10 32
-5 30 -17 -1 -5 4 -10 12 -12 9 -2 8 0 -2 7 -10 7 -11 11 -3 11 7 0 17 -9 23
-20 6 -11 15 -20 20 -20 6 0 50 -23 100 -50 50 -28 96 -51 103 -53 6 -1 14 -5
17 -8 12 -15 138 -78 144 -72 3 3 6 2 6 -4 0 -5 11 -15 25 -21 36 -17 45 -14
15 4 -20 12 -21 14 -5 11 11 -3 29 -8 40 -13 18 -7 18 -6 6 9 -7 9 -9 17 -4
17 10 0 37 -31 40 -48 2 -7 -4 -9 -14 -5 -13 5 -13 3 3 -13 25 -25 74 -56 74
-48 0 4 9 -1 19 -10 11 -10 24 -15 30 -12 5 4 15 -2 21 -13 6 -11 16 -18 24
-15 7 3 16 -2 19 -10 4 -10 13 -13 22 -9 14 5 14 8 3 15 -11 8 -10 9 1 6 8 -2
15 -12 17 -21 1 -11 -2 -15 -9 -11 -8 5 -9 4 -2 -3 6 -6 24 -14 40 -17 29 -7
29 -7 10 8 -19 16 -19 16 10 10 17 -4 35 -11 40 -17 7 -7 5 -8 -7 -4 -27 9
-29 -19 -2 -32 16 -7 32 -7 49 -1 23 9 45 -3 31 -17 -3 -4 -6 -1 -6 6 0 7 -4
9 -10 6 -15 -9 -12 -25 5 -25 8 0 15 -5 15 -11 0 -6 7 -8 15 -5 9 3 18 -1 21
-9 4 -8 11 -15 16 -15 6 0 7 7 4 16 -5 13 -3 14 7 6 10 -8 16 -6 26 9 7 13 18
18 28 15 21 -9 38 4 22 16 -11 8 -10 9 4 4 19 -6 67 12 67 26 0 4 3 7 8 6 9
-2 62 20 62 26 0 3 -8 3 -17 -1 -10 -3 -15 -2 -10 2 6 7 17 10 60 14 5 1 5 6
1 13 -5 7 -3 8 6 3 8 -5 18 -1 27 11 8 10 17 18 21 18 20 -4 53 17 45 28 -13
22 -12 36 4 43 9 3 18 3 21 0 3 -3 0 -5 -7 -5 -7 0 -9 -4 -6 -10 3 -5 1 -10
-6 -10 -10 0 -10 -3 -1 -12 9 -9 15 -10 20 -2 4 6 17 15 30 19 14 4 21 12 18
21 -3 7 -1 16 5 19 5 4 9 3 8 -2 -4 -23 4 -23 35 1 19 14 39 26 45 26 6 0 11
5 11 11 0 5 5 7 10 4 6 -3 13 1 16 9 3 9 13 16 21 16 8 0 28 7 45 16 24 13 28
18 17 26 -10 7 -8 8 8 3 25 -7 68 16 55 30 -4 5 -1 5 5 1 7 -4 23 0 35 8 12 9
17 16 10 16 -6 0 -12 4 -12 10 0 5 8 7 18 3 11 -4 10 0 -5 11 -13 10 -23 24
-23 32 0 8 -5 14 -11 14 -5 0 -7 5 -4 10 3 6 -4 11 -17 11 -19 1 -18 3 7 9 30
8 30 8 3 9 -14 0 -33 3 -41 7 -20 7 -105 -95 -87 -106 9 -6 7 -10 -9 -15 -11
-3 -25 -4 -30 0 -5 3 -11 -5 -13 -17 -2 -18 -9 -22 -28 -20 -20 2 -22 0 -10
-9 12 -9 11 -10 -7 -6 -13 3 -23 1 -23 -4 0 -5 10 -9 23 -10 21 -1 21 -1 -3
-8 -25 -7 -25 -7 -2 -13 16 -5 20 -11 15 -25 -5 -14 -4 -16 8 -8 8 6 4 0 -10
-12 -14 -12 -28 -19 -31 -16 -3 3 1 8 8 10 19 7 14 21 -10 26 -18 3 -17 5 7 6
l30 1 -29 15 c-15 8 -39 15 -53 15 -13 0 -31 7 -39 15 -9 8 -11 15 -5 15 6 0
11 5 11 11 0 8 -20 10 -59 7 -37 -3 -58 0 -54 5 3 6 1 7 -5 3 -6 -4 -37 1 -67
10 -52 14 -58 14 -74 0 -10 -9 -22 -16 -28 -16 -5 0 -18 -9 -28 -20 -10 -11
-24 -20 -30 -20 -7 0 -15 -8 -17 -18 -4 -12 -21 -23 -46 -29 -37 -10 -42 -8
-61 13 -19 22 -19 24 -3 25 34 1 -43 28 -84 29 -22 0 -65 7 -95 16 -52 16 -94
18 -229 13 -78 -4 -152 26 -242 97 -31 24 -62 43 -69 42 -6 -2 -14 4 -16 12
-4 13 -3 13 6 0 6 -8 11 -10 11 -4 0 16 -25 35 -35 26 -5 -4 -6 -2 -3 3 4 6
-1 25 -11 42 l-16 32 -45 -26z m1180 -253 c3 -4 12 -10 20 -13 9 -3 4 -6 -12
-6 -16 -1 -28 4 -28 9 0 6 -6 10 -14 10 -8 0 -18 5 -21 10 -7 12 46 2 55 -10z
m63 3 c-7 -2 -19 -2 -25 0 -7 3 -2 5 12 5 14 0 19 -2 13 -5z m287 3 c0 -3 -4
-8 -10 -11 -5 -3 -10 -1 -10 4 0 6 5 11 10 11 6 0 10 -2 10 -4z m-985 -135 c3
-5 2 -12 -3 -15 -5 -3 -9 1 -9 9 0 17 3 19 12 6z m61 -15 c10 -8 15 -18 11
-22 -4 -4 -17 2 -29 14 -25 25 -13 30 18 8z m444 -154 c0 -5 -7 -9 -15 -9 -8
0 -12 4 -9 9 3 4 9 8 15 8 5 0 9 -4 9 -8z m-220 -6 c0 -2 -7 -7 -16 -10 -8 -3
-12 -2 -9 4 6 10 25 14 25 6z m140 -15 c0 -5 -7 -12 -16 -15 -14 -5 -15 -4 -4
9 14 17 20 19 20 6z"/>
<path d="M3259 2739 c-10 -6 -10 -9 -1 -9 6 0 12 -7 12 -15 0 -18 20 -16 38 5
8 8 11 9 7 3 -4 -9 -1 -11 10 -7 11 5 13 10 6 17 -14 14 -54 17 -72 6z m36 -9
c3 -5 2 -10 -4 -10 -5 0 -13 5 -16 10 -3 6 -2 10 4 10 5 0 13 -4 16 -10z"/>
<path d="M4056 2689 c-63 -55 -66 -142 -6 -193 61 -51 142 -42 185 22 82 121
-71 267 -179 171z m122 -15 c56 -39 63 -110 16 -155 -37 -35 -89 -31 -125 9
-33 37 -36 60 -13 107 24 51 79 69 122 39z"/>
<path d="M3230 2700 c13 -9 13 -10 0 -10 -13 0 -13 -2 -1 -9 8 -5 21 -7 29 -3
12 4 12 7 -4 19 -10 7 -23 13 -28 13 -6 0 -4 -5 4 -10z"/>
<path d="M3184 2655 c-3 -8 -13 -11 -22 -8 -15 4 -15 3 -2 -6 11 -8 18 -7 27
5 6 9 16 13 22 10 5 -4 12 -3 15 2 2 4 -4 9 -15 9 -11 1 -22 -4 -25 -12z"/>
<path d="M3036 2591 c-4 -5 -2 -12 3 -15 5 -4 12 -2 15 3 4 5 2 12 -3 15 -5 4
-12 2 -15 -3z"/>
<path d="M2970 2576 c0 -2 7 -7 16 -10 8 -3 12 -2 9 4 -6 10 -25 14 -25 6z"/>
<path d="M3771 2530 c-52 -41 -70 -83 -58 -132 3 -11 -3 -38 -14 -59 -34 -67
-30 -136 10 -183 14 -16 82 -56 96 -56 3 0 5 56 5 124 0 134 4 158 26 149 11
-4 14 -33 14 -140 l0 -134 23 7 c56 17 106 83 106 139 1 23 -2 26 -9 15 -12
-19 -13 -4 -1 19 7 12 4 30 -9 59 -13 27 -17 53 -13 77 8 50 -13 93 -58 115
-21 11 -40 24 -44 30 -10 16 -21 12 -74 -30z m89 -42 c0 -4 -10 -12 -22 -18
-22 -11 -22 -10 -4 4 11 9 17 19 13 22 -4 4 -13 1 -22 -6 -13 -11 -15 -9 -15
12 0 14 3 28 7 32 7 7 42 -31 43 -46z m20 -11 c0 -2 -10 -12 -22 -23 l-23 -19
19 23 c18 21 26 27 26 19z"/>
<path d="M3415 2318 c-4 -10 -4 -26 0 -35 8 -17 8 -17 12 0 3 9 3 25 0 35 -4
16 -4 16 -12 0z"/>
<path d="M3037 2214 c-10 -11 -8 -44 2 -44 6 0 13 4 16 10 8 12 -9 43 -18 34z"/>
<path d="M973 2181 c-63 -29 -93 -81 -93 -161 0 -73 15 -105 71 -146 34 -25
69 -29 76 -8 2 6 -10 17 -27 24 -36 15 -77 61 -86 96 -15 61 36 156 92 170 15
4 24 13 24 25 0 23 -4 23 -57 0z"/>
<path d="M1070 2180 c0 -13 14 -26 39 -40 27 -13 45 -32 57 -60 11 -25 24 -40
36 -40 24 0 23 17 -5 62 -23 38 -92 97 -114 98 -7 0 -13 -9 -13 -20z"/>
<path d="M1029 2085 c-1 -36 -2 -71 -3 -77 -1 -7 8 -13 19 -13 13 0 20 6 19
18 0 9 -1 41 -2 71 -1 37 -7 56 -17 60 -12 4 -15 -6 -16 -59z"/>
<path d="M3319 2127 c-24 -13 -57 -43 -74 -66 -27 -38 -30 -51 -30 -116 0 -65
3 -78 30 -116 38 -54 68 -75 126 -90 92 -24 188 30 230 129 22 50 24 85 7 133
-42 126 -177 185 -289 126z m191 -63 c118 -107 44 -297 -111 -282 -97 10 -163
99 -139 189 24 90 72 129 157 129 47 0 58 -4 93 -36z"/>
<path d="M3359 2052 c-138 -88 -77 -260 86 -242 72 8 130 125 94 191 -12 24
-96 79 -119 79 -9 0 -36 -13 -61 -28z m57 -78 c-3 -9 -6 -20 -6 -25 0 -17 -28
-9 -33 10 -6 24 0 31 26 31 13 0 17 -5 13 -16z m-56 -18 c0 -3 -4 -8 -10 -11
-5 -3 -10 -1 -10 4 0 6 5 11 10 11 6 0 10 -2 10 -4z"/>
<path d="M3037 2134 c-11 -11 -8 -44 3 -44 15 0 24 30 13 41 -5 5 -12 6 -16 3z"/>
<path d="M2255 2120 c-3 -5 -2 -10 4 -10 5 0 13 5 16 10 3 6 2 10 -4 10 -5 0
-13 -4 -16 -10z"/>
<path d="M3034 2046 c-4 -10 -2 -22 4 -28 8 -8 13 -7 18 6 4 10 2 22 -4 28 -8
8 -13 7 -18 -6z"/>
<path d="M1420 1995 c0 -25 4 -35 13 -32 6 2 12 16 12 32 0 16 -6 30 -12 33
-9 2 -13 -8 -13 -33z"/>
<path d="M1162 1951 c-17 -39 -30 -53 -57 -62 -23 -9 -35 -19 -35 -32 0 -14 5
-17 23 -12 54 17 102 69 121 133 6 17 3 22 -11 22 -12 0 -26 -17 -41 -49z"/>
<path d="M2775 1968 c-2 -7 -5 -24 -7 -38 -2 -20 -9 -26 -35 -28 -38 -4 -46
-31 -12 -39 18 -5 20 -11 16 -39 l-6 -34 49 0 49 0 3 38 c2 30 7 38 26 40 34
5 27 30 -10 34 -28 3 -33 8 -41 41 -9 37 -24 48 -32 25z"/>
<path d="M3030 1949 c0 -24 23 -21 28 4 2 10 -3 17 -12 17 -10 0 -16 -9 -16
-21z"/>
<path d="M3807 1944 c-3 -3 1 -17 9 -30 9 -13 13 -28 9 -33 -9 -16 -34 10 -27
29 4 12 2 12 -13 -1 -16 -16 -16 -18 0 -43 22 -33 40 -33 62 0 15 24 15 28 1
52 -17 28 -30 36 -41 26z"/>
<path d="M1364 1912 c-122 -58 -158 -219 -71 -319 83 -94 211 -95 294 0 53 61
66 133 34 203 -48 106 -165 159 -257 116z m55 -121 c-3 -77 -1 -86 15 -89 22
-5 39 17 26 33 -14 16 -15 148 -2 153 20 6 87 -38 112 -75 33 -48 35 -138 4
-179 -38 -52 -71 -69 -132 -69 -71 0 -116 29 -144 93 -35 79 -4 173 69 211 21
10 42 17 46 14 5 -3 7 -44 6 -92z"/>
<path d="M1740 1910 c0 -11 5 -20 10 -20 6 0 10 9 10 20 0 11 -4 20 -10 20 -5
0 -10 -9 -10 -20z"/>
<path d="M3032 1876 c1 -10 8 -17 13 -17 15 1 12 24 -3 29 -9 3 -13 -2 -10
-12z"/>
<path d="M2482 1864 c4 -21 22 -23 26 -1 2 10 -3 17 -13 17 -10 0 -15 -6 -13
-16z"/>
<path d="M1737 1844 c-14 -14 -7 -35 11 -32 9 2 17 10 17 17 0 16 -18 25 -28
15z"/>
<path d="M3034 1806 c-8 -22 3 -33 18 -18 9 9 9 15 0 24 -9 9 -13 7 -18 -6z"/>
<path d="M2482 1784 c4 -21 22 -23 26 -1 2 10 -3 17 -13 17 -10 0 -15 -6 -13
-16z"/>
<path d="M1735 1760 c-7 -12 2 -30 16 -30 5 0 9 9 9 20 0 21 -15 27 -25 10z"/>
<path d="M1880 1705 c-12 -22 -11 -27 5 -45 l19 -21 20 20 c18 18 18 23 6 46
-17 32 -33 32 -50 0z"/>
<path d="M2865 1629 l-179 -88 85 -40 c230 -107 261 -121 275 -121 8 0 56 21
107 47 50 26 96 50 101 52 5 2 6 -62 2 -158 l-7 -161 31 0 32 0 -7 158 c-3 86
-3 162 2 168 4 6 28 21 51 33 24 12 42 24 40 26 -1 1 -82 41 -178 87 l-175 84
-180 -87z"/>
<path d="M2114 1686 c-6 -17 2 -36 17 -36 12 0 12 37 -1 45 -6 3 -13 -1 -16
-9z"/>
<path d="M1735 1680 c-7 -12 2 -30 16 -30 5 0 9 9 9 20 0 21 -15 27 -25 10z"/>
<path d="M2423 1683 c-37 -7 -63 -50 -63 -104 l0 -49 125 0 125 0 0 44 c0 60
-15 94 -42 100 -38 8 -122 13 -145 9z"/>
<path d="M3562 1612 c-20 -27 -20 -28 0 -55 16 -22 23 -25 38 -17 28 15 33 45
14 75 -21 32 -28 31 -52 -3z"/>
<path d="M2112 1603 c5 -25 28 -28 28 -4 0 12 -6 21 -16 21 -9 0 -14 -7 -12
-17z"/>
<path d="M1737 1586 c-6 -15 1 -26 15 -26 4 0 8 9 8 20 0 23 -15 27 -23 6z"/>
<path d="M2094 1483 c2 -37 5 -84 6 -103 l2 -35 9 33 c6 21 6 46 0 68 -13 47
-5 64 31 64 23 0 29 4 26 18 -2 12 -14 18 -41 20 l-37 3 4 -68z"/>
<path d="M2021 1501 c-18 -25 -21 -44 -21 -130 l0 -101 29 0 c21 0 30 6 34 22
8 30 -4 238 -14 238 -4 0 -17 -13 -28 -29z"/>
<path d="M2200 1394 l0 -125 28 3 c27 3 27 3 30 90 3 94 -14 158 -42 158 -14
0 -16 -19 -16 -126z"/>
<path d="M2360 1470 l0 -30 125 0 125 0 0 30 0 30 -125 0 -125 0 0 -30z"/>
<path d="M2121 1464 c0 -11 3 -14 6 -6 3 7 2 16 -1 19 -3 4 -6 -2 -5 -13z"/>
<path d="M2872 1363 c3 -46 5 -49 51 -72 71 -35 125 -38 200 -11 34 12 68 27
75 32 14 12 17 98 2 98 -5 0 -39 -16 -76 -35 -36 -19 -70 -35 -76 -35 -5 0
-43 16 -84 35 -40 19 -78 35 -84 35 -7 0 -10 -18 -8 -47z"/>
<path d="M2360 1177 c0 -217 1 -223 24 -257 12 -19 28 -51 35 -70 7 -19 25
-60 40 -90 l29 -55 31 69 c17 38 31 70 31 72 0 2 -11 -1 -24 -7 -39 -18 -68
-3 -104 52 -29 47 -31 54 -19 73 10 15 16 80 22 229 l7 207 -36 0 -36 0 0
-223z"/>
<path d="M2450 1192 c0 -196 1 -210 20 -227 19 -17 21 -17 40 0 19 17 20 31
20 227 l0 208 -40 0 -40 0 0 -208z"/>
<path d="M2550 1193 c0 -186 2 -210 19 -232 36 -47 41 -21 41 215 l0 224 -30
0 -30 0 0 -207z"/>
<path d="M2813 1177 c4 -10 3 -16 -2 -13 -4 3 -18 -5 -30 -18 l-21 -23 21 -26
c27 -35 44 -34 63 4 17 33 11 54 -20 80 -16 12 -17 12 -11 -4z m-22 -40 c-6
-8 -7 -18 -3 -22 4 -5 1 -5 -6 -1 -10 6 -10 11 -1 22 6 8 14 14 16 14 3 0 0
-6 -6 -13z"/>
<path d="M2099 1069 c-9 -17 -8 -20 3 -13 10 6 10 4 -1 -9 -12 -15 -12 -22 -1
-42 11 -21 16 -23 29 -12 12 10 13 9 6 -2 -6 -10 -4 -12 4 -7 7 5 10 15 7 23
-3 8 -2 12 3 9 5 -3 14 0 20 8 8 10 6 20 -10 40 -25 32 -44 33 -60 5z"/>
</g>
</svg>
